<?xml version="1.0" encoding="utf-8"?>
<!-- Generator: Adobe Illustrator 20.1.0, SVG Export Plug-In . SVG Version: 6.00 Build 0)  -->
<svg version="1.1" id="Layer_1" xmlns="http://www.w3.org/2000/svg" xmlns:xlink="http://www.w3.org/1999/xlink" x="0px" y="0px"
	 viewBox="0 0 128.2 89.3" style="enable-background:new 0 0 128.2 89.3;" width="128.2" height="89.3" xml:space="preserve">
<style type="text/css">
	.st0{fill:#C5C942;}
	.st1{fill:#5C7B9E;}
	.st2{fill:#FFE366;}
	.st3{fill:#D62F27;}
	.st4{fill:#FFFFFF;}
	.st5{fill:#F0DCB4;}
	.st6{fill:#36465E;}
	.st7{fill:#C5D9E3;}
	.st8{fill:#FFD159;}
	.st9{fill:#748FAB;}
	.st10{fill:#525F78;}
</style>
<g>
	<circle class="st0" cx="29.2" cy="36.5" r="16.6"/>
	<circle class="st1" cx="58.4" cy="14.3" r="14.3"/>
	<circle class="st2" cx="39.1" cy="73.8" r="14.8"/>
	<circle class="st3" cx="50.3" cy="43.2" r="11.4"/>
	<path class="st4" d="M64.5,13.3l2.8-2L65.4,8l-3.1,1.4c-0.5-0.4-1.1-0.9-1.8-1.1l-0.3-3.5h-3.8l-0.3,3.4c-0.7,0.3-1.4,0.8-2,1.3
		l-2.8-1.3l-1.9,3.3l2.6,1.8c-0.1,0.8-0.1,1.6,0,2.4l-2.5,1.7l1.9,3.3l2.9-1.4c0.6,0.5,1.3,0.8,2,1.1l0.3,3.1h3.8l0.3-3.2
		c0.7-0.3,1.3-0.6,1.8-1l3,1.4l1.9-3.3l-2.8-2C64.7,14.7,64.7,14,64.5,13.3z M59,17.3c-1.6,0.4-3.1-0.6-3.5-2.1
		c-0.4-1.6,0.6-3.1,2.1-3.5c1.6-0.4,3.1,0.6,3.5,2.1C61.5,15.3,60.5,16.9,59,17.3z"/>
	<path class="st4" d="M55.2,37.9h-9c-0.8,0-1.5,0.7-1.5,1.5v6.4c0,0.8,0.7,1.5,1.5,1.5h1.9v2.9l3-2.9h4.1c0.8,0,1.4-0.8,1.4-1.5
		v-6.4C56.6,38.6,55.9,37.9,55.2,37.9z"/>
	<path class="st5" d="M124.8,76.6l-0.5-17.8c0.2-1.3,0.5-2.7,0.7-4c0.2-1.5,0.4-3,0.6-4.5l0-0.1c0-0.1,0-0.3,0-0.4
		c-0.2-1.4-0.3-2.8-0.5-4.2c-0.2-1.4-0.3-2.8-0.6-4.2c-0.1-0.8-0.9-1.5-1.7-1.5c-1,0-1.7,0.8-1.7,1.7c0,0.5,0,0.9,0,1.4l-3.8-11.2
		c-0.4-1.1-1.5-1.7-2.6-1.3c-1.1,0.4-1.7,1.5-1.3,2.6l2.8,8.2l-6-9.1c-0.6-1-1.9-1.2-2.9-0.6c-1,0.6-1.2,1.9-0.6,2.9l7,10.7l1.2,7.4
		l-4.6-2.4l-0.3-0.2c-0.6-0.3-1.2-0.3-1.9-0.1l-10.9,4.5c-1,0.4-1.5,1.6-1.2,2.6c0.4,1.1,1.6,1.7,2.6,1.3l9.8-3.4l4.5,3.8
		c3.5,8.1-3.8,11.7-8.4,10.3l-0.2-0.2c-0.9-1.1-1.8-2.1-2.5-3c-0.7-0.9-1.3-1.6-1.8-2.1c-0.4-0.5-0.7-0.8-0.7-0.8
		c-0.6-0.7-1.7-1-2.6-0.4c-1,0.6-1.3,1.9-0.8,2.9c0,0,0.2,0.3,0.5,0.9c0.3,0.6,0.8,1.4,1.4,2.4c0.6,1,1.3,2.1,2,3.3
		c0.1,0.2,0.2,0.3,0.3,0.5c0.2,0.3,0.5,0.6,0.8,0.9c0.3,0.3,0.6,0.5,1,0.7l0.5,0.3c0.6,0.4,1.3,0.8,1.9,1.2c2.5,1.5,5.1,3.1,7,4.3
		c0.3,0.6,0.5,1.1,0.7,1.7l2.2,7.8h13.7L124.8,76.6z"/>
	<rect x="58.8" y="56.3" transform="matrix(0.9929 0.1192 -0.1192 0.9929 7.5299 -9.3657)" class="st6" width="46.5" height="4"/>
	<rect x="49.6" y="53" transform="matrix(0.9929 0.1192 -0.1192 0.9929 6.9361 -6.0874)" class="st7" width="9.5" height="4"/>
	<polygon class="st8" points="20.4,55.4 21.8,58.1 24.8,58.5 22.6,60.7 23.2,63.7 20.4,62.3 17.7,63.8 18.2,60.7 16,58.6 19.1,58.1 
			"/>
	<polygon class="st8" points="3.6,31 5.7,33.4 8.9,33.1 7.2,35.8 8.5,38.8 5.4,38 3,40.2 2.8,37 0,35.4 3,34.1 	"/>
	<polygon class="st8" points="64.1,63.3 66.7,65.8 70.1,65 68.6,68.2 70.4,71.2 66.9,70.8 64.5,73.4 63.9,70 60.7,68.5 63.8,66.8 	
		"/>
	<polygon class="st8" points="34.8,4.3 36.5,8.2 40.7,8.9 37.6,11.7 38.2,15.9 34.5,13.8 30.7,15.7 31.5,11.6 28.6,8.5 32.8,8.1 	
		"/>
	<polygon class="st8" points="69.7,35.6 71.6,38.6 75.1,38.8 72.8,41.4 73.7,44.9 70.5,43.5 67.5,45.4 67.8,41.9 65.1,39.7 
		68.5,38.9 	"/>
	<polygon class="st8" points="77.6,23.8 78.2,26.4 80.6,27.4 78.3,28.8 78.2,31.5 76.2,29.7 73.6,30.4 74.6,27.9 73.2,25.6 
		75.9,25.9 	"/>
	<g>
		<path class="st9" d="M40.2,65.7v8.7h-8.7c0,4.8,3.9,8.7,8.7,8.7s8.7-3.9,8.7-8.7C48.9,69.6,45,65.7,40.2,65.7z"/>
		<path class="st3" d="M38.1,63.5c-4.8,0-8.7,3.9-8.7,8.7h8.7V63.5z"/>
	</g>
	<path class="st1" d="M29.2,50.5c3.4,0,6.4-1.2,8.8-3.1l-1.9-5.2c-0.4-1.1-1.5-1.7-2.6-1.6c0,0-0.1,0-0.1,0h-8.6c0,0-0.1,0-0.1,0
		c-1.1-0.1-2.2,0.6-2.5,1.6l-1.9,5.2C22.8,49.3,25.9,50.5,29.2,50.5z"/>
	<g>
		<circle class="st5" cx="29.2" cy="33.4" r="6"/>
		<g>
			<path class="st10" d="M29.2,31.3c2.9,0,5.3,0.6,5.9,3.3c0.1-0.4,0.1-0.8,0.1-1.3c1.1-5.8-2.7-7.9-6-7.9c-3.3,0-7.3,2.8-6,7.9
				c0.1,0.4,0,0.8,0.1,1.3C24,31.9,26.4,31.3,29.2,31.3z"/>
		</g>
	</g>
</g>
</svg>